<svg width="80" height="80" viewBox="0 0 80 80" fill="none" xmlns="http://www.w3.org/2000/svg">
<g clip-path="url(#clip_free)">

<!-- Shadow layer (darkest, +2 offset) -->
<rect x="22" y="50" width="40" height="26" rx="5" fill="#064e3b"/>
<rect x="18" y="38" width="48" height="15" rx="5" fill="#064e3b"/>
<rect x="38" y="38" width="7" height="38" fill="#064e3b"/>

<!-- Main gift body -->
<rect x="20" y="48" width="40" height="26" rx="5" fill="#059669"/>

<!-- Lid -->
<rect x="16" y="36" width="48" height="15" rx="5" fill="#10b981"/>
<!-- Lid top highlight -->
<rect x="16" y="36" width="48" height="8" rx="5" fill="#34d399"/>

<!-- Ribbon vertical -->
<rect x="37" y="36" width="6" height="38" fill="#6ee7b7"/>

<!-- Bow loop left -->
<path d="M40 36 C37 36 26 24 23 29 C20 34 40 36 40 36Z" fill="#6ee7b7"/>
<!-- Bow loop right -->
<path d="M40 36 C43 36 54 24 57 29 C60 34 40 36 40 36Z" fill="#6ee7b7"/>
<!-- Bow knot -->
<circle cx="40" cy="36" r="4.5" fill="#a7f3d0"/>

<!-- Sheen on body -->
<rect x="24" y="53" width="11" height="5" rx="2.5" fill="#ffffff" opacity="0.13"/>

<!-- Spark — rounded rect (bolt style) -->
<rect x="62" y="16" width="7" height="7" rx="1.4" fill="#6ee7b7" opacity="0.9" transform="rotate(14 65 19)"/>
<!-- Spark — circle -->
<circle cx="72" cy="30" r="2.5" fill="#34d399" opacity="0.8"/>

</g>
<defs>
<clipPath id="clip_free"><rect width="80" height="80"/></clipPath>
</defs>
</svg>
