<svg width="138" height="156" viewBox="0 0 138 156" fill="none" xmlns="http://www.w3.org/2000/svg">
<g filter="url(#filter0_d_16_41)">
<path opacity="0.5" d="M69 18L107 32V72C107 94 89 112 69 121C49 112 31 94 31 72V32L69 18Z" fill="#0C4A6E"/>
<path d="M69 21L104 34V72C104 92 87 109 69 118C51 109 34 92 34 72V34L69 21Z" fill="url(#paint0_linear_16_41)"/>
<path d="M69 30L96 41V72C96 88 82 102 69 109C56 102 42 88 42 72V41L69 30Z" fill="url(#paint1_linear_16_41)"/>
<path opacity="0.65" d="M44 44C46 35.3333 51 29.3333 59 26" stroke="#FFF8E1" stroke-width="3" stroke-linecap="round"/>
<path opacity="0.88" d="M69 50L71.8 58.8H81.2001L73.9001 64.1L76.7001 73L69 67.8L61.3 73L64.1 64.1L56.8 58.8H66.2001L69 50Z" fill="white"/>
<path d="M69 66C71.2091 66 73 64.2091 73 62C73 59.7909 71.2091 58 69 58C66.7909 58 65 59.7909 65 62C65 64.2091 66.7909 66 69 66Z" fill="#1D4ED8"/>
<path opacity="0.8" d="M69 64C70.1046 64 71 63.1046 71 62C71 60.8954 70.1046 60 69 60C67.8954 60 67 60.8954 67 62C67 63.1046 67.8954 64 69 64Z" fill="#FFF8E1"/>
<path opacity="0.28" d="M54 92L69 96L84 92" stroke="#FFF8E1" stroke-width="1.5"/>
</g>
<defs>
<filter id="filter0_d_16_41" x="0" y="0" width="138" height="156" filterUnits="userSpaceOnUse" color-interpolation-filters="sRGB">
<feFlood flood-opacity="0" result="BackgroundImageFix"/>
<feColorMatrix in="SourceAlpha" type="matrix" values="0 0 0 0 0 0 0 0 0 0 0 0 0 0 0 0 0 0 127 0" result="hardAlpha"/>
<feOffset dy="8"/>
<feGaussianBlur stdDeviation="12"/>
<feComposite in2="hardAlpha" operator="out"/>
<feColorMatrix type="matrix" values="0 0 0 0 0 0 0 0 0 0 0 0 0 0 0 0 0 0 0.6 0"/>
<feBlend mode="normal" in2="BackgroundImageFix" result="effect1_dropShadow_16_41"/>
<feBlend mode="normal" in="SourceGraphic" in2="effect1_dropShadow_16_41" result="shape"/>
</filter>
<linearGradient id="paint0_linear_16_41" x1="34" y1="20" x2="104" y2="120" gradientUnits="userSpaceOnUse">
<stop stop-color="#FFF8E1"/>
<stop offset="0.4" stop-color="#3B82F6"/>
<stop offset="0.7" stop-color="#1D4ED8"/>
<stop offset="1" stop-color="#0C4A6E"/>
</linearGradient>
<linearGradient id="paint1_linear_16_41" x1="42" y1="28" x2="79" y2="81" gradientUnits="userSpaceOnUse">
<stop stop-color="white" stop-opacity="0.6"/>
<stop offset="1" stop-color="#38BDF8" stop-opacity="0"/>
</linearGradient>
</defs>
</svg>
