<svg width="138" height="156" viewBox="0 0 138 156" fill="none" xmlns="http://www.w3.org/2000/svg">
<g filter="url(#filter0_d_16_244)">
<path opacity="0.8" d="M69 18L107 32V72C107 94 89 112 69 121C49 112 31 94 31 72V32L69 18Z" fill="#0A0118"/>
<path d="M69 21L104 34V72C104 92 87 109 69 118C51 109 34 92 34 72V34L69 21Z" fill="url(#paint0_linear_16_244)"/>
<path d="M69 30L96 41V72C96 88 82 102 69 109C56 102 42 88 42 72V41L69 30Z" fill="url(#paint1_linear_16_244)"/>
<path opacity="0.45" d="M69 21L104 34V72C104 92 87 109 69 118C51 109 34 92 34 72V34L69 21Z" stroke="#D946EF" stroke-width="1.4"/>
<path opacity="0.55" d="M44 44C46 35.3333 51 29.3333 59 26" stroke="#E1BEE7" stroke-width="3" stroke-linecap="round"/>
<path opacity="0.88" d="M46 82V66L54 73L69 60L84 73L92 66V82H46Z" fill="#D946EF"/>
<path opacity="0.6" d="M90 80H48C46.8954 80 46 80.8954 46 82V84C46 85.1046 46.8954 86 48 86H90C91.1046 86 92 85.1046 92 84V82C92 80.8954 91.1046 80 90 80Z" fill="#D946EF"/>
<path d="M46 69.5C47.933 69.5 49.5 67.933 49.5 66C49.5 64.067 47.933 62.5 46 62.5C44.067 62.5 42.5 64.067 42.5 66C42.5 67.933 44.067 69.5 46 69.5Z" fill="#E1BEE7"/>
<path d="M69 63.5C70.933 63.5 72.5 61.933 72.5 60C72.5 58.067 70.933 56.5 69 56.5C67.067 56.5 65.5 58.067 65.5 60C65.5 61.933 67.067 63.5 69 63.5Z" fill="#E1BEE7"/>
<path d="M92 69.5C93.933 69.5 95.5 67.933 95.5 66C95.5 64.067 93.933 62.5 92 62.5C90.067 62.5 88.5 64.067 88.5 66C88.5 67.933 90.067 69.5 92 69.5Z" fill="#E1BEE7"/>
<path opacity="0.9" d="M87 40V47" stroke="#E1BEE7" stroke-width="2"/>
<path opacity="0.9" d="M83.5 43.5H90.5" stroke="#E1BEE7" stroke-width="2"/>
<path opacity="0.7" d="M45 92V97" stroke="#E1BEE7" stroke-width="1.5"/>
<path opacity="0.7" d="M42.5 94.5H47.5" stroke="#E1BEE7" stroke-width="1.5"/>
<path opacity="0.6" d="M96 82V86" stroke="#E1BEE7" stroke-width="1.2"/>
<path opacity="0.6" d="M94 84H98" stroke="#E1BEE7" stroke-width="1.2"/>
<path opacity="0.3" d="M54 98L69 102L84 98" stroke="#E1BEE7" stroke-width="1.5"/>
</g>
<defs>
<filter id="filter0_d_16_244" x="0" y="0" width="138" height="156" filterUnits="userSpaceOnUse" color-interpolation-filters="sRGB">
<feFlood flood-opacity="0" result="BackgroundImageFix"/>
<feColorMatrix in="SourceAlpha" type="matrix" values="0 0 0 0 0 0 0 0 0 0 0 0 0 0 0 0 0 0 127 0" result="hardAlpha"/>
<feOffset dy="8"/>
<feGaussianBlur stdDeviation="12"/>
<feComposite in2="hardAlpha" operator="out"/>
<feColorMatrix type="matrix" values="0 0 0 0 0 0 0 0 0 0 0 0 0 0 0 0 0 0 0.6 0"/>
<feBlend mode="normal" in2="BackgroundImageFix" result="effect1_dropShadow_16_244"/>
<feBlend mode="normal" in="SourceGraphic" in2="effect1_dropShadow_16_244" result="shape"/>
</filter>
<linearGradient id="paint0_linear_16_244" x1="34" y1="20" x2="104" y2="120" gradientUnits="userSpaceOnUse">
<stop stop-color="#7C3AED"/>
<stop offset="0.35" stop-color="#3B0764"/>
<stop offset="0.7" stop-color="#1E0535"/>
<stop offset="1" stop-color="#0A0118"/>
</linearGradient>
<linearGradient id="paint1_linear_16_244" x1="42" y1="26" x2="79" y2="74" gradientUnits="userSpaceOnUse">
<stop stop-color="#E879F9" stop-opacity="0.45"/>
<stop offset="1" stop-color="#7C3AED" stop-opacity="0"/>
</linearGradient>
</defs>
</svg>
